Coordinates
version=1
nRows=24
nColumns=19
inDegrees=yes

Units are S.I. units (second, meters, Newtons, ...)
If the header above contains a line with 'inDegrees', this indicates whether rotational values are in degrees (yes) or radians (no).

endheader
time	pelvis_tilt	pelvis_list	pelvis_rotation	pelvis_tx	pelvis_ty	pelvis_tz	hip_flexion_r	hip_adduction_r	hip_rotation_r	knee_angle_r	knee_angle_r_beta	ankle_angle_r	hip_flexion_l	hip_adduction_l	hip_rotation_l	knee_angle_l	knee_angle_l_beta	ankle_angle_l
     14.83333333	    -10.90393010	     -2.08926880	      0.12862728	      2.32061636	      0.99560249	      1.01753562	     36.83413176	      4.64292100	     -6.65920492	     13.21058339	      0.23056818	      2.84511657	    -10.89874371	     -4.86766563	     -4.31725734	     70.27442200	      1.22652004	    -10.86972911
     14.84000000	    -10.91070486	     -1.94099592	     -0.26742734	      2.31802883	      0.99121015	      1.01765032	     37.79031212	      4.45786414	     -7.11793433	     16.89454603	      0.29486545	      2.57983330	     -9.25180895	     -4.44509576	     -3.81929808	     75.30351931	      1.31429435	    -10.56943183
     14.84666667	    -10.91915461	     -1.82856932	     -0.77592997	      2.31527469	      0.98630316	      1.01765073	     38.83320013	      4.28865647	     -7.52991842	     21.12796874	      0.36875262	      2.53681117	     -7.53933646	     -4.07762999	     -3.57434459	     80.24342334	      1.40051194	    -10.19069113
     14.85333333	    -10.85869951	     -1.76915194	     -1.34778447	      2.31251199	      0.98105990	      1.01752685	     39.75037786	      4.16849198	     -7.76527845	     25.58453510	      0.44653438	      2.81924965	     -5.84294130	     -3.79365699	     -3.49775277	     85.04857267	      1.48437762	     -9.70295127
     14.86000000	    -10.73916394	     -1.79092621	     -1.95083985	      2.30978884	      0.97566714	      1.01732725	     40.43744980	      4.15679623	     -7.77210668	     29.97759013	      0.52320765	      3.46849828	     -4.14737020	     -3.65086421	     -3.54027074	     89.68418806	      1.56528437	     -9.11706356
     14.86666667	    -10.54997971	     -1.89460452	     -2.56603988	      2.30710761	      0.97037695	      1.01714133	     40.81277192	      4.28644119	     -7.53601874	     34.11371333	      0.59539662	      4.55385523	     -2.45238840	     -3.66104804	     -3.64630089	     94.11570262	      1.64262889	     -8.46343292
     14.87333333	    -10.46187515	     -2.13290892	     -3.18637966	      2.30445506	      0.96517899	      1.01707468	     41.00606002	      4.63653974	     -7.10065037	     37.85384037	      0.66067415	      6.04304279	     -0.55587957	     -3.91436931	     -3.77230190	     98.35417509	      1.71660419	     -7.73239124
     14.88000000	    -10.46172438	     -2.47492261	     -3.74630836	      2.30183722	      0.96032558	      1.01710095	     40.97907702	      5.13426428	     -6.59042577	     41.11931321	      0.71766740	      7.90803765	      1.55002567	     -4.37025373	     -3.80792156	    102.36090162	      1.78653476	     -6.94131333
     14.88666667	    -10.04050514	     -3.08878382	     -4.27411425	      2.29941513	      0.95667560	      1.01726868	     40.08516064	      5.91374307	     -6.11769952	     43.73244722	      0.76327519	     10.09775661	      3.25492829	     -5.22203486	     -3.81181926	    106.02061230	      1.85040876	     -6.11794341
     14.89333333	    -10.79545862	     -3.35199828	     -4.62984926	      2.29656852	      0.95218798	      1.01741536	     40.28814173	      6.37565538	     -5.56804143	     46.04566475	      0.80364846	     12.36426770	      6.59122304	     -5.75311124	     -3.44556822	    109.56949522	      1.91234845	     -5.47455704
     14.90000000	    -11.03646176	     -3.84416948	     -4.86809894	      2.29399592	      0.94917698	      1.01758738	     39.53151178	      6.97974956	     -5.21413599	     47.68909506	      0.83233173	     14.73068892	      9.45031935	     -6.58396284	     -2.95472102	    112.69162222	      1.96683985	     -4.73182211
     14.90666667	    -11.29775963	     -4.29665538	     -4.96969820	      2.29156099	      0.94696886	      1.01777108	     38.49382715	      7.48548346	     -4.96351884	     48.81269683	      0.85194228	     17.08310460	     12.51865109	     -7.37771634	     -2.27671006	    115.40906541	      2.01426818	     -4.12864641
     14.91333333	    -11.52808619	     -4.68093658	     -4.92308837	      2.28934883	      0.94563009	      1.01785799	     37.12094851	      7.86208750	     -4.78128145	     49.41040185	      0.86237420	     19.30143769	     15.71659717	     -8.03421007	     -1.43816876	    117.67395285	      2.05379792	     -3.56846020
     14.92000000	    -11.25313638	     -4.80954464	     -4.98890731	      2.28786289	      0.94585053	      1.01815173	     34.90913765	      8.08815291	     -4.28707017	     49.54041053	      0.86464328	     21.43640619	     18.29140489	     -8.37378452	     -0.92549033	    119.21545277	      2.08070217	     -3.03013757
     14.92666667	    -10.91110387	     -4.51930546	     -5.10768680	      2.28799473	      0.94774040	      1.01865541	     32.21922669	      7.92219154	     -3.58864598	     49.06440720	      0.85633545	     23.01684377	     20.59438019	     -8.23381361	     -0.78714144	    119.78682634	      2.09067452	     -2.64091048
     14.93333333	     -9.54517899	     -4.35930689	     -4.83255701	      2.28852108	      0.95149236	      1.01877316	     28.12272930	      7.56662204	     -3.34764846	     48.01284184	      0.83798217	     24.48551937	     21.78574795	     -8.07795923	     -0.50959794	    119.86745564	      2.09208177	     -2.13495353
     14.94000000	     -9.30595118	     -3.88823527	     -4.47998125	      2.28801539	      0.95383958	      1.01895389	     25.30075060	      6.98153664	     -3.09681747	     46.89304763	      0.81843808	     25.44165570	     24.46910702	     -7.60400073	     -0.21652508	    119.88644893	      2.09241326	     -1.59519806
     14.94666667	     -9.47247369	     -3.56579818	     -3.79342715	      2.28670842	      0.95551422	      1.01881904	     22.87793942	      6.44684986	     -3.30675557	     45.56635913	      0.79528299	     25.95769175	     27.81900954	     -7.16286974	      0.39354512	    119.87785841	      2.09226333	     -1.01223797
     14.95333333	    -10.16869982	     -3.42875767	     -2.88531063	      2.28466028	      0.95624651	      1.01844664	     21.02851257	      6.07640824	     -3.88000366	     44.12706959	      0.77016265	     26.00953374	     31.92416538	     -6.75110202	      1.24358877	    119.83094599	      2.09144455	     -0.40593093
     14.96000000	    -11.72228187	     -3.33892794	     -2.02646395	      2.28215931	      0.95562672	      1.01817135	     20.19277102	      5.84013594	     -4.46542420	     42.79872173	      0.74697861	     25.66802504	     36.99050912	     -6.28789592	      2.02634300	    119.62670310	      2.08787984	      0.17017175
     14.96666667	    -12.35050764	     -3.06256709	     -1.30626783	      2.28117454	      0.95711087	      1.01814513	     18.07540998	      5.47581215	     -4.83789967	     40.97336230	      0.71512008	     24.79802515	     40.51872836	     -5.66465998	      2.24081604	    118.60175467	      2.06999112	      0.80307147
     14.97333333	    -13.02066924	     -2.27647384	     -0.98316857	      2.28128497	      0.95953248	      1.01868790	     15.92318215	      4.75952907	     -4.61152054	     38.98893657	      0.68048532	     23.47496679	     43.53810900	     -4.82459733	      1.58940972	    116.80658782	      2.03865955	      1.42271785
     14.98000000	    -13.76245109	     -1.45827631	     -0.60909374	      2.28192256	      0.96223960	      1.01920685	     13.78370581	      3.96559843	     -4.55283856	     36.81238793	      0.64249737	     21.60080229	     46.37316994	     -3.95968774	      0.82083252	    114.60463453	      2.00022821	      2.01645484
     14.98666667	    -13.66269232	     -0.69490075	      0.13223512	      2.28334702	      0.96641771	      1.01925095	     10.54764183	      3.13576747	     -4.99649626	     34.17779713	      0.59651509	     18.99015637	     48.03841396	     -2.87017180	      0.24497342	    112.00162455	      1.95479712	      2.59362395
